<?xml version="1.0" encoding="utf-8"?><svg xml:space="preserve" viewBox="0 0 100 100" y="0" x="0" xmlns="http://www.w3.org/2000/svg" id="圖層_1" version="1.1" width="220px" height="220px" xmlns:xlink="http://www.w3.org/1999/xlink" style="width:100%;height:100%;background-size:initial;background-repeat-y:initial;background-repeat-x:initial;background-position-y:initial;background-position-x:initial;background-origin:initial;background-color:initial;background-clip:initial;background-attachment:initial;animation-play-state:paused" ><g class="ldl-scale" style="transform-origin:50% 50%;transform:rotate(0deg) scale(0.8, 0.8);animation-play-state:paused" ><circle fill="#ffdc6c" clip-rule="evenodd" fill-rule="evenodd" r="23.3" cy="37.7" cx="33.3" style="fill:rgb(255, 220, 108);animation-play-state:paused" ></circle>
<path fill="#b5b5b5" clip-rule="evenodd" fill-rule="evenodd" d="M78.5 58.1c.6-1.9.9-3.9.9-5.9 0-10.8-8.8-19.6-19.6-19.6-7.5 0-14 4.2-17.3 10.4-1.2-.4-2.6-.6-3.9-.6-7.2 0-13 5.8-13 13 0 .9.1 1.8.3 2.6-6.6 1-11.7 6.8-11.7 13.7 0 7.7 6.2 13.9 13.9 13.9h48.1c7.7 0 13.9-6.2 13.9-13.9-.1-6.8-5.1-12.5-11.6-13.6z" style="fill:rgb(181, 181, 181);animation-play-state:paused" ></path>
<metadata xmlns:d="https://loading.io/stock/" style="animation-play-state:paused" ><d:name style="animation-play-state:paused" >sunny</d:name>
<d:tags style="animation-play-state:paused" >solar,sky,weather,cloud,mist,day,light,sunny,weather</d:tags>
<d:license style="animation-play-state:paused" >pro</d:license>
<d:slug style="animation-play-state:paused" >iqwxiq</d:slug></metadata></g><!-- generated by https://loading.io/ --></svg>