<?xml version="1.0" encoding="utf-8"?><svg xml:space="preserve" viewBox="0 0 100 100" y="0" x="0" xmlns="http://www.w3.org/2000/svg" id="圖層_1" version="1.1" width="220px" height="220px" xmlns:xlink="http://www.w3.org/1999/xlink" style="width:100%;height:100%;background-size:initial;background-repeat-y:initial;background-repeat-x:initial;background-position-y:initial;background-position-x:initial;background-origin:initial;background-color:initial;background-clip:initial;background-attachment:initial;animation-play-state:paused" ><g class="ldl-scale" style="transform-origin:50% 50%;transform:rotate(0deg) scale(0.8, 0.8);animation-play-state:paused" ><g style="animation-play-state:paused" ><circle fill="#ffdc6c" clip-rule="evenodd" fill-rule="evenodd" r="12.5" cy="28.4" cx="40.4" style="fill:rgb(255, 220, 108);animation-play-state:paused" ></circle>
<g style="animation-play-state:paused" ><path d="M40.4 5v6.9" stroke-miterlimit="10" stroke-linecap="round" stroke-width="2.688" stroke="#f8b26a" fill="none" style="stroke:rgb(248, 178, 106);animation-play-state:paused" ></path>
<path d="M28.7 8.1l3.5 6" stroke-miterlimit="10" stroke-linecap="round" stroke-width="2.688" stroke="#f8b26a" fill="none" style="stroke:rgb(248, 178, 106);animation-play-state:paused" ></path>
<path d="M20.1 16.7l6 3.5" stroke-miterlimit="10" stroke-linecap="round" stroke-width="2.688" stroke="#f8b26a" fill="none" style="stroke:rgb(248, 178, 106);animation-play-state:paused" ></path>
<path d="M17 28.4h6.9" stroke-miterlimit="10" stroke-linecap="round" stroke-width="2.688" stroke="#f8b26a" fill="none" style="stroke:rgb(248, 178, 106);animation-play-state:paused" ></path>
<path d="M20.1 40.2l6-3.5" stroke-miterlimit="10" stroke-linecap="round" stroke-width="2.688" stroke="#f8b26a" fill="none" style="stroke:rgb(248, 178, 106);animation-play-state:paused" ></path>
<path d="M28.7 48.7l3.5-6" stroke-miterlimit="10" stroke-linecap="round" stroke-width="2.688" stroke="#f8b26a" fill="none" style="stroke:rgb(248, 178, 106);animation-play-state:paused" ></path>
<path d="M40.4 51.9V45" stroke-miterlimit="10" stroke-linecap="round" stroke-width="2.688" stroke="#f8b26a" fill="none" style="stroke:rgb(248, 178, 106);animation-play-state:paused" ></path>
<path d="M52.2 48.7l-3.5-6" stroke-miterlimit="10" stroke-linecap="round" stroke-width="2.688" stroke="#f8b26a" fill="none" style="stroke:rgb(248, 178, 106);animation-play-state:paused" ></path>
<path d="M60.7 40.2l-6-3.5" stroke-miterlimit="10" stroke-linecap="round" stroke-width="2.688" stroke="#f8b26a" fill="none" style="stroke:rgb(248, 178, 106);animation-play-state:paused" ></path>
<path d="M63.9 28.4H57" stroke-miterlimit="10" stroke-linecap="round" stroke-width="2.688" stroke="#f8b26a" fill="none" style="stroke:rgb(248, 178, 106);animation-play-state:paused" ></path>
<path d="M60.7 16.7l-6 3.5" stroke-miterlimit="10" stroke-linecap="round" stroke-width="2.688" stroke="#f8b26a" fill="none" style="stroke:rgb(248, 178, 106);animation-play-state:paused" ></path>
<path d="M52.2 8.1l-3.5 6" stroke-miterlimit="10" stroke-linecap="round" stroke-width="2.688" stroke="#f8b26a" fill="none" style="stroke:rgb(248, 178, 106);animation-play-state:paused" ></path></g></g>
<path fill="#b5b5b5" clip-rule="evenodd" fill-rule="evenodd" d="M74.4 46.9c.4-1.4.7-2.9.7-4.4 0-8.1-6.6-14.7-14.7-14.7-5.6 0-10.5 3.2-13 7.8-.9-.3-1.9-.5-2.9-.5-5.4 0-9.8 4.4-9.8 9.8 0 .7.1 1.3.2 2-5 .8-8.8 5.1-8.8 10.3 0 5.7 4.7 10.4 10.4 10.4h36.1c5.7 0 10.4-4.7 10.4-10.4 0-5.2-3.7-9.5-8.6-10.3z" style="fill:rgb(181, 181, 181);animation-play-state:paused" ></path>
<g style="animation-play-state:paused" ><g style="animation-play-state:paused" ><path fill="#77a4bd" d="M36.4 75.5l1.2-3.2c.3-.8-.1-1.8-.9-2.1-.8-.3-1.8.1-2.1.9l-1.2 3.2c-.3.8.1 1.8.9 2.1.2.1.4.1.6.1.6 0 1.2-.4 1.5-1z" style="fill:rgb(119, 164, 189);animation-play-state:paused" ></path></g>
<g style="animation-play-state:paused" ><path fill="#77a4bd" d="M42.6 80.6l3.2-8.4c.3-.8-.1-1.8-.9-2.1-.8-.3-1.8.1-2.1.9l-3.2 8.4c-.3.8.1 1.8.9 2.1.2.1.4.1.6.1.6 0 1.3-.4 1.5-1z" style="fill:rgb(119, 164, 189);animation-play-state:paused" ></path></g>
<g style="animation-play-state:paused" ><path fill="#77a4bd" d="M48.8 85.7l5.1-13.5c.3-.8-.1-1.8-.9-2.1-.8-.3-1.8.1-2.1.9l-5.1 13.5c-.3.8.1 1.8.9 2.1.2.1.4.1.6.1.7.1 1.3-.3 1.5-1z" style="fill:rgb(119, 164, 189);animation-play-state:paused" ></path></g>
<g style="animation-play-state:paused" ><path fill="#77a4bd" d="M60.5 76.5l1.6-4.1c.3-.8-.1-1.8-.9-2.1-.8-.3-1.8.1-2.1.9l-1.6 4.1c-.3.8.1 1.8.9 2.1.2.1.4.1.6.1.6 0 1.2-.4 1.5-1z" style="fill:rgb(119, 164, 189);animation-play-state:paused" ></path></g>
<g style="animation-play-state:paused" ><path fill="#77a4bd" d="M64.5 87.4L70 72.2c.3-.8-.1-1.8-1-2.1-.8-.3-1.8.1-2.1 1l-5.5 15.2c-.3.8.1 1.8 1 2.1.2.1.4.1.5.1.8 0 1.4-.4 1.6-1.1z" style="fill:rgb(119, 164, 189);animation-play-state:paused" ></path></g>
<g style="animation-play-state:paused" ><path fill="#77a4bd" d="M73 82.7l3.2-9.8c.3-.8-.2-1.8-1-2-.8-.3-1.8.2-2 1L70 81.7c-.3.8.2 1.8 1 2 .2.1.3.1.5.1.6 0 1.2-.4 1.5-1.1z" style="fill:rgb(119, 164, 189);animation-play-state:paused" ></path></g>
<g style="animation-play-state:paused" ><path fill="#77a4bd" d="M29.5 94l4.8-13c.3-.8-.1-1.8-.9-2.1-.8-.3-1.8.1-2.1.9l-4.8 12.9c-.3.8.1 1.8.9 2.1.2.1.4.1.6.1.6.1 1.2-.3 1.5-.9z" style="fill:rgb(119, 164, 189);animation-play-state:paused" ></path></g>
<g style="animation-play-state:paused" ><path fill="#77a4bd" d="M37.5 94l2.8-7.4c.3-.8-.1-1.8-.9-2.1-.8-.3-1.8.1-2.1.9l-2.8 7.4c-.3.8.1 1.8.9 2.1.2.1.4.1.6.1.6 0 1.3-.4 1.5-1z" style="fill:rgb(119, 164, 189);animation-play-state:paused" ></path></g>
<g style="animation-play-state:paused" ><path fill="#77a4bd" d="M45.7 94l.8-2c.3-.8-.1-1.8-.9-2.1-.8-.3-1.8.1-2.1.9l-.8 2c-.3.8.1 1.8.9 2.1.2.1.4.1.6.1.6 0 1.3-.4 1.5-1z" style="fill:rgb(119, 164, 189);animation-play-state:paused" ></path></g>
<g style="animation-play-state:paused" ><path fill="#77a4bd" d="M53.7 94l4.4-11.4c.3-.8-.1-1.8-.9-2.1-.8-.3-1.8.1-2.1.9l-4.4 11.4c-.3.8.1 1.8.9 2.1.3.1.4.1.6.1.7 0 1.3-.4 1.5-1z" style="fill:rgb(119, 164, 189);animation-play-state:paused" ></path></g>
<g style="animation-play-state:paused" ><path fill="#77a4bd" d="M70.2 94l2.2-5.7c.3-.8-.1-1.8-.9-2.1-.8-.3-1.8.1-2.1.9l-2.2 5.7c-.3.8.1 1.8.9 2.1.2.1.4.1.6.1.7 0 1.3-.4 1.5-1z" style="fill:rgb(119, 164, 189);animation-play-state:paused" ></path></g></g>
<metadata xmlns:d="https://loading.io/stock/" style="animation-play-state:paused" ><d:name style="animation-play-state:paused" >sunny</d:name>
<d:tags style="animation-play-state:paused" >cloudy,rain,sun,storm,sunny,weather</d:tags>
<d:license style="animation-play-state:paused" >pro</d:license>
<d:slug style="animation-play-state:paused" >i8zyoe</d:slug></metadata></g><!-- generated by https://loading.io/ --></svg>