<?xml version="1.0" encoding="utf-8"?><svg xml:space="preserve" viewBox="0 0 100 100" y="0" x="0" xmlns="http://www.w3.org/2000/svg" id="圖層_1" version="1.1" width="254px" height="254px" xmlns:xlink="http://www.w3.org/1999/xlink" style="width:100%;height:100%;background-size:initial;background-repeat-y:initial;background-repeat-x:initial;background-position-y:initial;background-position-x:initial;background-origin:initial;background-color:initial;background-clip:initial;background-attachment:initial;animation-play-state:paused" ><g class="ldl-scale" style="transform-origin:50% 50%;transform:rotate(0deg) scale(0.8, 0.8);animation-play-state:paused" ><path fill="#e0e0e0" clip-rule="evenodd" fill-rule="evenodd" d="M49.5 47.6c.4-1.2.6-2.5.6-3.9 0-7.1-5.7-12.8-12.8-12.8-4.9 0-9.1 2.7-11.3 6.8-.8-.3-1.7-.4-2.6-.4-4.7 0-8.5 3.8-8.5 8.5 0 .6.1 1.2.2 1.7-4.3.7-7.6 4.4-7.6 8.9 0 5 4.1 9.1 9.1 9.1H48c5 0 9.1-4.1 9.1-9.1-.1-4.4-3.3-8.1-7.6-8.8z" style="fill:rgb(224, 224, 224);animation-play-state:paused" ></path>
<g style="animation-play-state:paused" ><g style="animation-play-state:paused" ><path fill="#77a4bd" d="M79.1 52.1H34.2c-.7 0-1.2-.5-1.2-1.2s.5-1.2 1.2-1.2h44.9c7.1 0 11-3.3 11-9.2 0-5.1-4.1-9.2-9.2-9.2s-9.2 4.1-9.2 9.2c0 .7-.5 1.2-1.2 1.2s-1.2-.5-1.2-1.2c0-6.4 5.2-11.6 11.6-11.6 6.4 0 11.6 5.2 11.6 11.6 0 3.5-1.3 11.6-13.4 11.6z" style="fill:rgb(119, 164, 189);animation-play-state:paused" ></path></g></g>
<g style="animation-play-state:paused" ><g style="animation-play-state:paused" ><path fill="#a0c8d7" d="M57 47.8H34.2c-.7 0-1.2-.5-1.2-1.2s.5-1.2 1.2-1.2H57c2.9 0 4.3-1.1 4.3-3.1 0-1.7-1.4-3.1-3.1-3.1-1.1 0-2.1.6-2.7 1.5-.3.6-1.1.7-1.6.4-.6-.3-.7-1.1-.4-1.6 1-1.7 2.8-2.6 4.7-2.6 3 0 5.5 2.5 5.5 5.5 0 3.4-2.5 5.4-6.7 5.4z" style="fill:rgb(160, 200, 215);animation-play-state:paused" ></path></g></g>
<g style="animation-play-state:paused" ><g style="animation-play-state:paused" ><path fill="#a0c8d7" d="M76.7 71.1c-4.7 0-8.5-3.8-8.5-8.5 0-.7.5-1.2 1.2-1.2s1.2.5 1.2 1.2c0 3.4 2.7 6.1 6.1 6.1 3.4 0 6.1-2.7 6.1-6.1 0-2.8-.9-6.1-7.9-6.1H34.2c-.7 0-1.2-.5-1.2-1.2s.5-1.2 1.2-1.2h40.6c6.8 0 10.3 2.8 10.3 8.5 0 4.7-3.8 8.5-8.4 8.5z" style="fill:rgb(160, 200, 215);animation-play-state:paused" ></path></g></g>
<metadata xmlns:d="https://loading.io/stock/" style="animation-play-state:paused" ><d:name style="animation-play-state:paused" >breeze</d:name>


<d:tags style="animation-play-state:paused" >wind,chill,blow,air,flow,breeze,weather</d:tags>


<d:license style="animation-play-state:paused" >by</d:license>


<d:slug style="animation-play-state:paused" >uli81e</d:slug></metadata></g><!-- generated by https://loading.io/ --></svg>